<svg version="1.2" xmlns="http://www.w3.org/2000/svg" viewBox="0 0 29 29" width="29" height="29">
	<title>Calendar</title>
	<style>
		.s0 { fill: #717171 } 
	</style>
	<path id="Calendar" fill-rule="evenodd" class="s0" d="m2.2 0.5h1.8v5.3h7v-5.3h7v5.3h7v-5.3h1.8c0.9 0 1.7 0.8 1.7 1.8v24.4c0 1-0.8 1.8-1.7 1.8h-24.6c-0.9 0-1.7-0.8-1.7-1.8v-24.4c0-1 0.8-1.8 1.7-1.8zm3.5 0h3.6v3.5h-3.6zm14.1 0h3.5v3.5h-3.5zm-15.8 24.5h21v-15.7h-21zm3.5-12.3h3.5v3.5h-3.5zm5.3 0h3.5v3.5h-3.5zm5.2 0h3.5v3.5h-3.5zm-10.5 5.3h3.5v3.5h-3.5zm5.3 0h3.5v3.5h-3.5zm5.2 0h3.5v3.5h-3.5z"/>
</svg>