<svg version="1.2" xmlns="http://www.w3.org/2000/svg" viewBox="0 0 49 49" width="49" height="49">
	<title>checkpoint</title>
	<style>
		.s0 { fill: #bbbbbb } 
		.s1 { fill: #ffffff } 
	</style>
	<g id="checkpoint">
		<circle id="Ellipse 1" class="s0" cx="24.5" cy="24.5" r="24.5"/>
		<path id="compass" fill-rule="evenodd" class="s1" d="m24.5 47c-12.4 0-22.5-10.1-22.5-22.5 0-12.4 10.1-22.5 22.5-22.5 12.4 0 22.5 10.1 22.5 22.5 0 12.4-10.1 22.5-22.5 22.5zm0.2-39.4c-9.4 0-17 7.5-17 16.9 0 9.3 7.6 16.9 17 16.9 9.3 0 16.9-7.6 16.9-16.9 0-9.4-7.6-16.9-16.9-16.9zm-9.8 26.7l5.5-14.1 14-5.5-5.7 14zm6.9-9.8c0 1.5 1.2 2.8 2.8 2.8 1.5 0 2.8-1.3 2.8-2.8 0-1.6-1.3-2.8-2.8-2.8-1.6 0-2.8 1.2-2.8 2.8z"/>
	</g>
</svg>