<svg version="1.2" xmlns="http://www.w3.org/2000/svg" viewBox="0 0 40 34" width="40" height="34">
	<title>twitter-ai</title>
	<style>
		.s0 { fill: #000000 } 
	</style>
	<g id="Layer 1">
		<path id="&lt;Path&gt;" class="s0" d="m35.9 8.8q0 0.6 0 1.1c0 10.8-8.2 23.4-23.3 23.4-4.7 0-9-1.4-12.6-3.7q1 0.1 2 0.1c3.8 0 7.3-1.3 10.1-3.5-3.5-0.1-6.6-2.5-7.6-5.7q0.7 0.1 1.5 0.1 1.2 0 2.2-0.3c-3.8-0.7-6.6-4-6.6-8q0-0.1 0-0.1c1.1 0.6 2.4 1 3.7 1-2.2-1.5-3.6-4-3.6-6.8 0-1.5 0.4-2.9 1.1-4.2 4 5 10.1 8.3 16.9 8.6q-0.2-0.9-0.2-1.8c0-4.6 3.7-8.3 8.2-8.3 2.4 0 4.5 1 6 2.6 1.9-0.3 3.6-1 5.2-2-0.6 2-1.9 3.6-3.6 4.6q2.5-0.3 4.7-1.3c-1.1 1.6-2.5 3.1-4.1 4.2z"/>
	</g>
</svg>